<svg id="Layer_1" data-name="Layer 1" xmlns="http://www.w3.org/2000/svg" viewBox="0 0 152.04 52.73"><defs><style>.cls-1{fill:none;stroke:#8b4513;stroke-miterlimit:2.23;stroke-width:7.46px;}.cls-2{fill:#fff;}.cls-3{font-size:10px;fill:#fff;font-family:CourierNewPS-BoldMT, Courier New;font-weight:700;}</style></defs><title>logoChowBusiness</title><path class="cls-1" d="M18.42,31.16a16.47,16.47,0,0,1-6.54-1.23A9.76,9.76,0,0,1,7.36,26a13.06,13.06,0,0,1-1.63-6.92,16,16,0,0,1,1.6-7.41,11.73,11.73,0,0,1,4.41-4.85,12.32,12.32,0,0,1,6.5-1.71,17.25,17.25,0,0,1,4.4.57A19.34,19.34,0,0,1,26.39,7a1.16,1.16,0,0,1,.52,1.19c0,.18,0,.51-.06,1s-.08,1-.11,1.66-.08,1.16-.11,1.67-.07.86-.09,1a.62.62,0,0,1-.57.67.77.77,0,0,1-.81-.51,8.29,8.29,0,0,0-2.61-2.9,7.61,7.61,0,0,0-4.38-1.11,6,6,0,0,0-3.45,1.06,7.08,7.08,0,0,0-2.48,3.1,12.11,12.11,0,0,0-.91,5,8.85,8.85,0,0,0,1,4.43,5.6,5.6,0,0,0,2.59,2.4,8.46,8.46,0,0,0,3.54.73,10.16,10.16,0,0,0,4.69-1,7,7,0,0,0,3.1-3.18.77.77,0,0,1,.89-.54c.4.07.62.36.64.87.05,1,.1,1.95.14,2.94s.1,2,.12,3a1.09,1.09,0,0,1-.17.71,1.53,1.53,0,0,1-.49.49,14.78,14.78,0,0,1-2.63.78,29.83,29.83,0,0,1-3.32.52A26.28,26.28,0,0,1,18.42,31.16Zm27.88-.11c-.25,0-.56,0-1,0s-.79-.06-1.18-.1a1.36,1.36,0,0,1-.64-.33.92.92,0,0,1-.27-.69c0-2.11,0-4.26,0-6.46s.06-4.34.11-6.44.11-4.06.19-5.88.19-3.41.31-4.77a1,1,0,0,1,.92-.91,5.35,5.35,0,0,1,.89-.12l.74,0c.32,0,.65,0,1,0s.7.06,1,.1c.62.12.91.45.87,1-.1,1-.2,2.11-.28,3.17S49,11.86,49,13.22a2,2,0,0,0,1,1.94,7,7,0,0,0,2.6.54q.73,0,1.83,0c.72,0,1.33,0,1.82,0a7.72,7.72,0,0,0,2.7-.54A1.92,1.92,0,0,0,60,13.22c0-1.36,0-2.57-.13-3.65s-.18-2.15-.27-3.19a.86.86,0,0,1,.23-.69,1,1,0,0,1,.64-.33,10.54,10.54,0,0,1,1.13-.09l1,0,.72,0a7.51,7.51,0,0,1,.88.09,1,1,0,0,1,.9.95c.13,1.35.23,2.94.32,4.77s.15,3.77.21,5.87.11,4.25.14,6.46,0,4.37,0,6.48a.87.87,0,0,1-.3.69,1.41,1.41,0,0,1-.64.33c-.39,0-.8.08-1.21.1s-.73,0-1,0-.61,0-1.17,0l-1.31-.07a1.25,1.25,0,0,1-.64-.36.88.88,0,0,1-.19-.77c.17-1.21.32-2.41.43-3.6a32.11,32.11,0,0,0,.19-3.5,1.84,1.84,0,0,0-1-1.85,6.8,6.8,0,0,0-2.67-.51c-.48,0-1.1,0-1.85,0s-1.38,0-1.86,0a6.27,6.27,0,0,0-2.57.51A1.9,1.9,0,0,0,49,22.71c0,1.12,0,2.28.15,3.49s.26,2.4.43,3.61a.88.88,0,0,1-.19.77,1.06,1.06,0,0,1-.62.36c-.31,0-.75,0-1.32.07S46.52,31.05,46.3,31.05Zm46.79.15A15.87,15.87,0,0,1,86.7,30a9.29,9.29,0,0,1-4.34-3.88,13.52,13.52,0,0,1-1.57-7,16.6,16.6,0,0,1,1.55-7.42,11.53,11.53,0,0,1,4.32-4.85,12.81,12.81,0,0,1,12.89,0,11.49,11.49,0,0,1,4.33,4.85,16.6,16.6,0,0,1,1.55,7.42,13.52,13.52,0,0,1-1.57,7A9.26,9.26,0,0,1,99.51,30,15.88,15.88,0,0,1,93.09,31.2Zm0-4.81a7.46,7.46,0,0,0,3.35-.73,5.2,5.2,0,0,0,2.37-2.38,9.5,9.5,0,0,0,.88-4.42,11.65,11.65,0,0,0-.87-4.69,7.41,7.41,0,0,0-2.32-3.11,5.79,5.79,0,0,0-6.82,0,7.12,7.12,0,0,0-2.33,3.11,12,12,0,0,0-.84,4.69,9.51,9.51,0,0,0,.87,4.42,5.28,5.28,0,0,0,2.36,2.38A7.52,7.52,0,0,0,93.12,26.39Zm34.68,4.66c-.24,0-.57,0-1,0s-.8-.06-1.15-.1A1.36,1.36,0,0,1,124.6,30c-.41-1.36-.84-2.95-1.27-4.77s-.86-3.76-1.27-5.84-.77-4.21-1.13-6.4-.63-4.37-.84-6.5c-.07-.61.14-.94.65-1A8,8,0,0,1,122,5.31l1.11,0,1,0a11.09,11.09,0,0,1,1.17.09.92.92,0,0,1,.83,1c0,1,.15,2,.3,3.14s.3,2.25.47,3.33.33,2,.48,2.85a37.71,37.71,0,0,0,.61,3.75c.22.95.49,1.42.8,1.42s.45-.24.64-.73a13.22,13.22,0,0,0,.52-1.85c.17-.76.35-1.52.52-2.29s.58-1.92.92-3.05l1-3.07a7.74,7.74,0,0,1,1.12-2.42,2.09,2.09,0,0,1,1.75-.79,2.12,2.12,0,0,1,1.78.79A7,7,0,0,1,138,9.91c.29.94.61,2,1,3.1s.65,2.12.9,3,.37,1.56.52,2.3a12.15,12.15,0,0,0,.52,1.84c.2.49.42.73.66.73s.59-.44.8-1.31a32.81,32.81,0,0,0,.62-3.75c.15-.82.32-1.78.49-2.87s.34-2.22.47-3.37a31.87,31.87,0,0,0,.24-3.19.94.94,0,0,1,.92-1,7.61,7.61,0,0,1,1.19-.12l1,0,1.06,0a7.77,7.77,0,0,1,1.23.12c.51.08.73.41.66,1-.22,2.13-.5,4.31-.83,6.52s-.72,4.35-1.13,6.46-.84,4-1.29,5.85-.84,3.38-1.23,4.72a1.35,1.35,0,0,1-1.08.94l-1.14.07c-.41,0-.74,0-1,0s-.65,0-1.08,0l-1.4-.1a3.6,3.6,0,0,1-1.11-.27,1.3,1.3,0,0,1-.6-.9c-.1-.53-.23-1.21-.39-2s-.31-1.7-.47-2.61-.3-1.73-.45-2.46c-.19-.95-.38-1.84-.58-2.69a15.53,15.53,0,0,0-.6-2.07c-.21-.53-.46-.8-.75-.8s-.51.27-.75.8a11.86,11.86,0,0,0-.62,2.07c-.17.85-.36,1.74-.56,2.69l-.45,2.55q-.24,1.35-.48,2.55c-.15.8-.29,1.47-.41,2a1.12,1.12,0,0,1-.59.88,5.28,5.28,0,0,1-1.12.29c-.49.06-.93.11-1.33.12Z" transform="translate(-2 -1.41)"/><path class="cls-2" d="M18.44,31.15a16.59,16.59,0,0,1-6.57-1.22A9.86,9.86,0,0,1,7.35,26a13.18,13.18,0,0,1-1.62-6.92,16,16,0,0,1,1.6-7.41,11.78,11.78,0,0,1,4.42-4.86,12.34,12.34,0,0,1,6.5-1.71,17.29,17.29,0,0,1,4.39.57A19.34,19.34,0,0,1,26.39,7a1.2,1.2,0,0,1,.53,1.21c0,.16,0,.5-.07,1s-.08,1-.12,1.64-.06,1.18-.11,1.69-.05.85-.08,1a.64.64,0,0,1-.56.67.77.77,0,0,1-.81-.52,8.41,8.41,0,0,0-2.61-2.88,7.59,7.59,0,0,0-4.39-1.12,6.06,6.06,0,0,0-3.46,1.06,7.14,7.14,0,0,0-2.48,3.08,12.38,12.38,0,0,0-.9,5,9,9,0,0,0,1,4.46,5.67,5.67,0,0,0,2.58,2.4,8.57,8.57,0,0,0,3.57.73,10.2,10.2,0,0,0,4.68-1,7,7,0,0,0,3.09-3.19.77.77,0,0,1,.89-.54c.4.07.62.36.65.87l.12,2.94c.06,1,.1,2,.13,3a1.09,1.09,0,0,1-.17.71,1.53,1.53,0,0,1-.48.5,15.44,15.44,0,0,1-2.64.79,32.77,32.77,0,0,1-3.32.5A28.21,28.21,0,0,1,18.44,31.15Z" transform="translate(-2 -1.41)"/><path class="cls-2" d="M46.31,31.05c-.25,0-.58,0-1,0s-.78-.06-1.17-.11a1.2,1.2,0,0,1-.65-.31,1,1,0,0,1-.27-.71q0-3.16,0-6.45c0-2.2.07-4.34.11-6.44s.12-4,.21-5.88.19-3.4.31-4.77a1,1,0,0,1,.92-.91,6.82,6.82,0,0,1,.87-.13l.77,0c.3,0,.64,0,1,0s.71.06,1,.11c.64.12.93.45.88,1-.1,1-.19,2.1-.27,3.17S49,11.86,49,13.22a1.91,1.91,0,0,0,1,1.93,7.2,7.2,0,0,0,2.61.55c.48,0,1.08,0,1.81,0s1.34,0,1.83,0a8.06,8.06,0,0,0,2.71-.55A1.89,1.89,0,0,0,60,13.22c0-1.36-.05-2.58-.14-3.65s-.18-2.14-.27-3.19a.86.86,0,0,1,.25-.7.88.88,0,0,1,.62-.32,10.1,10.1,0,0,1,1.13-.1l1,0,.73,0a7.91,7.91,0,0,1,.88.1c.58.12.88.43.89.94.13,1.36.23,3,.32,4.77s.15,3.78.21,5.88.11,4.25.14,6.45,0,4.37,0,6.48a.93.93,0,0,1-.29.71,1.33,1.33,0,0,1-.67.31c-.39.05-.79.08-1.2.11s-.73,0-1,0l-1.17,0L60.14,31a1.24,1.24,0,0,1-.65-.38.87.87,0,0,1-.21-.75c.18-1.22.33-2.42.44-3.6a32.38,32.38,0,0,0,.19-3.5,1.87,1.87,0,0,0-1-1.86,6.87,6.87,0,0,0-2.67-.52l-1.87,0-1.86,0a6.24,6.24,0,0,0-2.56.52A1.91,1.91,0,0,0,49,22.72q0,1.66.15,3.48c.11,1.19.26,2.4.44,3.62a.9.9,0,0,1-.19.75,1.12,1.12,0,0,1-.62.38L47.47,31Z" transform="translate(-2 -1.41)"/><path class="cls-2" d="M93.1,31.2A15.88,15.88,0,0,1,86.7,30a9.26,9.26,0,0,1-4.35-3.88,13.64,13.64,0,0,1-1.56-7,16.56,16.56,0,0,1,1.54-7.41,11.76,11.76,0,0,1,4.33-4.88,12.85,12.85,0,0,1,12.88,0,11.63,11.63,0,0,1,4.33,4.88,16.42,16.42,0,0,1,1.56,7.41,13.64,13.64,0,0,1-1.56,7A9.26,9.26,0,0,1,99.52,30,16,16,0,0,1,93.1,31.2Zm0-4.82a7.47,7.47,0,0,0,3.36-.73,5.23,5.23,0,0,0,2.37-2.37,9.47,9.47,0,0,0,.88-4.42,12,12,0,0,0-.86-4.71,7.46,7.46,0,0,0-2.33-3.1,5.87,5.87,0,0,0-6.84,0,7.38,7.38,0,0,0-2.33,3.1,12.16,12.16,0,0,0-.83,4.71,9.48,9.48,0,0,0,.87,4.42,5.3,5.3,0,0,0,2.36,2.37A7.49,7.49,0,0,0,93.12,26.38Z" transform="translate(-2 -1.41)"/><path class="cls-2" d="M127.8,31.05l-1,0c-.42,0-.8-.06-1.15-.11a1.34,1.34,0,0,1-1-.93q-.63-2-1.29-4.77c-.43-1.82-.85-3.76-1.25-5.84s-.78-4.22-1.13-6.41-.63-4.36-.85-6.5c-.07-.61.15-1,.65-1a9.18,9.18,0,0,1,1.2-.13l1.13,0,1,0c.38,0,.77,0,1.16.08a.94.94,0,0,1,.84,1c0,.95.15,2,.29,3.15s.31,2.25.48,3.33.32,2,.48,2.86q.28,2.31.6,3.75c.22,1,.49,1.41.81,1.41s.45-.24.63-.72a13.53,13.53,0,0,0,.54-1.86c.17-.76.33-1.53.5-2.31l.94-3c.34-1.14.67-2.17,1-3.09a7.78,7.78,0,0,1,1.12-2.41,2.1,2.1,0,0,1,1.75-.79,2.13,2.13,0,0,1,1.79.79A6.81,6.81,0,0,1,138,9.9c.29.95.61,2,1,3.11s.65,2.11.89,3,.37,1.58.52,2.33a13.58,13.58,0,0,0,.54,1.84c.2.48.41.72.65.72s.59-.43.81-1.31a32.41,32.41,0,0,0,.63-3.75c.13-.83.29-1.79.48-2.87s.33-2.22.45-3.38.22-2.21.25-3.19a.93.93,0,0,1,.92-1,9.22,9.22,0,0,1,1.19-.13l1,0,1.06,0a9.41,9.41,0,0,1,1.25.13c.5.07.72.41.65,1-.23,2.14-.51,4.31-.86,6.52s-.7,4.36-1.12,6.46-.83,4.05-1.27,5.85-.85,3.37-1.23,4.71a1.39,1.39,0,0,1-1.08,1l-1.15.06c-.41,0-.74,0-1,0s-.66,0-1.08,0-.9-.06-1.4-.11a3.23,3.23,0,0,1-1.12-.27,1.19,1.19,0,0,1-.59-.89c-.1-.53-.23-1.2-.39-2s-.32-1.7-.48-2.61-.3-1.74-.44-2.48c-.2-.94-.39-1.83-.58-2.68a15.36,15.36,0,0,0-.61-2.07q-.32-.81-.75-.81t-.75.81a12,12,0,0,0-.6,2.07c-.18.85-.37,1.74-.56,2.68s-.32,1.67-.48,2.57-.31,1.74-.46,2.54-.29,1.47-.42,2a1.1,1.1,0,0,1-.58.87,4.11,4.11,0,0,1-1.13.29c-.49.07-.93.11-1.33.13Z" transform="translate(-2 -1.41)"/><text class="cls-3" transform="translate(45.9 45.63)">- Business -</text></svg>